De Heineken Ontvoering (2011) DVDRip DD5.1
.
[IMG]http://img832.imageshack.us/img832/7168/75990.jpg[/IMG]
.
Nederland
Misdaad / Thriller
120 minuten

geregisseerd door Maarten Treurniet
met Rutger Hauer, Reinout Scholten van Aschat en Gijs Naber

De Heineken Ontvoering is ge´nspireerd op de bekendste ontvoeringszaak in Nederland. De biermagnaat Alfred Heineken wordt in 1983 samen met zijn chauffeur Ab Doderer ontvoerd door vier mannen, die 35 miljoen gulden losgeld eisen. Vier jonge, op geld beluste criminelen die elkaar al van jongs af aan kennen en een hechte clan vormen, sluiten Heineken en Doderer twee weken lang op in een Amsterdamse loods. De film laat het spannende verhaal van de ontvoering en de jacht op de daders zien, maar biedt ook een kijkje in de psychologische machtsstrijd tussen Heineken en zijn ontvoerders.

Vanaf 21 februari te huur
Vanaf 8 maart te koop op Blu-Ray en DVD
. 
http://www.moviemeter.nl/film/75990
.
PLOT
. 
http://www.imdb.com/title/tt1846526/
.
INFO
.
Source: exvid-paardenpis-cd1.r00, exvid-paardenpis-cd2.r00
2CD versie Onduidelijk maar weet zeker dat dit een dvdrip is kwaliteit is zeer goed.
Heb deze 2 bestanden netjes aan elkaar gemaakt, thanks virtualdub
Audio Dutch
Subs: NON
.
Enjoy
.
Format : AVI
Format/Info : Audio Video Interleave
File size : 1.37 GiB
Duration : 1h 57mn
Overall bit rate : 1 661 Kbps
Writing application : VirtualDubMod 1.5.10.2 (build 2540/release)
Writing library : VirtualDub build 32842/release

Video
ID : 0
Format : MPEG-4 Visual
Format profile : Advanced Simple@L5
Format settings, BVOP : 2
Format settings, QPel : No
Format settings, GMC : No warppoints
Format settings, Matrix : Default (H.263)
Muxing mode : Packed bitstream
Codec ID : XVID
Codec ID/Hint : XviD
Duration : 1h 57mn
Bit rate : 1 204 Kbps
Width : 640 pixels
Height : 272 pixels
Display aspect ratio : 2.35:1
Frame rate : 25.000 fps
Color space : YUV
Chroma subsampling : 4:2:0
Bit depth : 8 bits
Scan type : Progressive
Compression mode : Lossy
Bits/(Pixel*Frame) : 0.277
Stream size : 1 014 MiB (72%)
Writing library : XviD 62

Audio
ID : 1
Format : AC-3
Format/Info : Audio Coding 3
Mode extension : CM (complete main)
Codec ID : 2000
Duration : 1h 57mn
Bit rate mode : Constant
Bit rate : 448 Kbps
Channel(s) : 6 channels
Channel positions : Front: L C R, Side: L R, LFE
Sampling rate : 48.0 KHz
Bit depth : 16 bits
Compression mode : Lossy
Stream size : 377 MiB (27%)
Alignment : Split accross interleaves
Interleave, duration : 40 ms (1.00 video frame)
Interleave, preload duration : 500 ms
